#N canvas 243 189 300 525 10;
#X obj 43 483 dac~;
#X obj 106 423 hsl 128 15 0 1 0 0 empty empty Master_volume -2 -8 0
10 -262144 -1 -1 12700 1;
#X obj 43 453 *~;
#X msg 43 341 1;
#X obj 85 453 *~;
#X obj 43 378 readsf~ 2;
#X floatatom 43 221 5 0 0 0 - - -, f 5;
#X obj 43 130 bng 30 250 50 0 empty empty empty 17 7 0 10 -262144 -1
-1;
#X msg 75 297 open media/\$1.wav;
#X obj 43 259 t b f;
#X obj 43 84 comport 9600;
#X msg 43 57 open 0;
#X obj 43 30 loadbang;
#X msg 166 57 devices;
#X msg 111 57 close;
#X obj 91 259 print playing sample;
#X obj 43 170 random 10;
#X text 118 168 Open sample 1 to 10;
#X obj 43 194 + 1;
#X obj 197 460 loadbang;
#X msg 197 486 \; pd dsp 1;
#X connect 1 0 2 1;
#X connect 1 0 4 1;
#X connect 2 0 0 0;
#X connect 3 0 5 0;
#X connect 4 0 0 1;
#X connect 5 0 2 0;
#X connect 5 1 4 0;
#X connect 6 0 9 0;
#X connect 6 0 15 0;
#X connect 7 0 16 0;
#X connect 8 0 5 0;
#X connect 9 0 3 0;
#X connect 9 1 8 0;
#X connect 10 0 7 0;
#X connect 11 0 10 0;
#X connect 12 0 11 0;
#X connect 13 0 10 0;
#X connect 14 0 10 0;
#X connect 16 0 18 0;
#X connect 18 0 6 0;
#X connect 19 0 20 0;
